<svg width="40" height="40" fill="none" xmlns="http://www.w3.org/2000/svg"><circle cx="20" cy="20" r="16.667" fill="#1174A3"/><path d="M26.098 28.123c-.625.6-1.906 1.046-3.135 1.067a7.95 7.95 0 01-.137.001c-4.041 0-5.12-3.084-5.12-4.907v-5.6a.084.084 0 00-.083-.084h-1.954a.084.084 0 01-.084-.084v-2.55c0-.035.022-.066.054-.078 2.088-.813 3.254-2.428 3.56-4.926.018-.14.132-.143.133-.143h2.609c.046 0 .083.038.083.084v4.484c0 .046.038.083.084.083h3.246c.047 0 .084.038.084.084v2.962a.084.084 0 01-.084.084h-3.26a.084.084 0 00-.084.084v5.322c.02 1.199.6 1.806 1.724 1.806a4.2 4.2 0 001.446-.286.083.083 0 01.109.05l.83 2.459a.084.084 0 01-.021.088zM22.285 30c2 0 3.983-.712 4.64-1.576l.13-.173-1.24-3.677a.084.084 0 00-.079-.056h-2.771a.083.083 0 01-.081-.06 1.925 1.925 0 01-.055-.458v-4.497c0-.046.038-.084.084-.084h3.26a.084.084 0 00.084-.084v-4.6a.084.084 0 00-.084-.084h-3.246a.084.084 0 01-.084-.083v-4.484A.084.084 0 0022.76 10h-5.694a.967.967 0 00-.945.862c-.285 2.314-1.346 3.703-3.341 4.37l-.223.074a.084.084 0 00-.057.08v3.95c0 .046.037.083.084.083h2.037v4.865c0 3.884 2.69 5.716 7.664 5.716z" fill="#F4F2ED"/></svg>