<svg width="40" height="40" fill="none" xmlns="http://www.w3.org/2000/svg"><circle cx="20" cy="20" r="16.667" fill="#1174A3"/><path fill-rule="evenodd" clip-rule="evenodd" d="M30 13.59a8.194 8.194 0 01-2.357.646 4.113 4.113 0 001.804-2.27 8.218 8.218 0 01-2.605.996 4.103 4.103 0 00-6.991 3.742 11.647 11.647 0 01-8.458-4.286 4.081 4.081 0 00-.555 2.062c0 1.424.723 2.68 1.825 3.415a4.09 4.09 0 01-1.86-.513v.051a4.108 4.108 0 003.292 4.025 4.125 4.125 0 01-1.853.07 4.109 4.109 0 003.833 2.85A8.235 8.235 0 0110 26.076a11.616 11.616 0 006.29 1.844c7.546 0 11.674-6.252 11.674-11.674 0-.178-.004-.355-.012-.53A8.358 8.358 0 0030 13.59z" fill="#F4F2ED"/></svg>