<svg width="1100" height="1030" fill="none" xmlns="http://www.w3.org/2000/svg"><g opacity=".06" fill="#1174A3"><path d="M550-70l5.099 534.308L873.282 35.041 563.349 470.302l509.731-160.261L566.5 480l506.58 169.959-509.731-160.261 309.933 435.261-318.183-429.267L550 1030l-5.099-534.308-318.183 429.267 309.933-435.261L26.919 649.959 533.5 480 26.919 310.041 536.65 470.302 226.718 35.041l318.183 429.267L550-70z"/><path d="M550 40l2.753 422.617L685.967 61.535 557.99 464.318l250.635-340.285-246.18 343.522 343.522-246.181L565.682 472.01l402.783-127.977-401.082 133.214L990 480l-422.617 2.753 401.082 133.214L565.682 487.99l340.285 250.635-343.522-246.18 246.18 343.522L557.99 495.682l127.977 402.783-133.214-401.082L550 920l-2.753-422.617-133.214 401.082L542.01 495.682 291.374 835.967l246.181-343.522-343.522 246.18L534.318 487.99 131.535 615.967l401.082-133.214L110 480l422.617-2.753-401.082-133.214L534.318 472.01 194.033 221.374l343.522 246.181-246.181-343.522L542.01 464.318 414.033 61.535l133.214 401.082L550 40z"/></g></svg>