<svg width="22" height="22" viewBox="0 0 22 22" fill="none" xmlns="http://www.w3.org/2000/svg">
<path d="M20.3294 21.6668C8.95469 21.6828 0.321356 12.9468 0.333356 1.67083C0.333356 0.933496 0.930689 0.333496 1.66669 0.333496H5.18669C5.84669 0.333496 6.40802 0.81883 6.50536 1.47216C6.73749 3.0389 7.19325 4.56422 7.85869 6.0015L7.99602 6.2975C8.08827 6.49668 8.10812 6.72182 8.05213 6.93407C7.99615 7.14633 7.86785 7.33239 7.68936 7.46016C6.59869 8.23883 6.18269 9.8055 7.03202 11.0268C8.09736 12.5602 9.44002 13.9042 10.9734 14.9695C12.196 15.8175 13.7627 15.4015 14.54 14.3122C14.6677 14.1331 14.8539 14.0044 15.0664 13.9481C15.279 13.8919 15.5045 13.9117 15.704 14.0042L15.9987 14.1402C17.436 14.8068 18.9614 15.2628 20.528 15.4948C21.1814 15.5922 21.6667 16.1535 21.6667 16.8148V20.3335C21.6667 20.5087 21.6322 20.6822 21.5651 20.844C21.498 21.0059 21.3996 21.1529 21.2757 21.2768C21.1517 21.4006 21.0046 21.4988 20.8427 21.5657C20.6808 21.6326 20.5072 21.667 20.332 21.6668H20.3294Z" fill="#1174A3"/>
</svg>
