<svg width="40" height="40" viewBox="0 0 40 40" fill="none" xmlns="http://www.w3.org/2000/svg">
<circle cx="20" cy="20.0002" r="16.6667" fill="#1174A3"/>
<path d="M26.0978 28.1229C25.4733 28.7234 24.1916 29.1694 22.9631 29.1902C22.9167 29.191 22.8712 29.1914 22.8255 29.1914H22.8251C18.7846 29.1912 17.7065 26.1068 17.7065 24.2843V18.6837C17.7065 18.6375 17.6691 18.6 17.6229 18.6H15.6691C15.6229 18.6 15.5854 18.5626 15.5854 18.5164V15.9651C15.5854 15.9309 15.6068 15.9005 15.6386 15.8882C17.7268 15.0753 18.893 13.46 19.1997 10.9617C19.2168 10.8229 19.3313 10.8191 19.3325 10.8191H21.9406C21.9868 10.8191 22.0243 10.8566 22.0243 10.9028V15.3868C22.0243 15.433 22.0617 15.4704 22.1079 15.4704H25.3544C25.4006 15.4704 25.4381 15.5079 25.4381 15.5541V18.5164C25.4381 18.5626 25.4006 18.6 25.3544 18.6H22.0939C22.0477 18.6 22.0103 18.6375 22.0103 18.6837L22.0104 24.0063C22.0296 25.2047 22.6096 25.8123 23.7343 25.8123C24.1875 25.8123 24.7066 25.7068 25.1805 25.5258C25.2248 25.5089 25.2737 25.5314 25.2889 25.5763L26.1183 28.0349C26.1287 28.0659 26.1214 28.1002 26.0978 28.1229ZM22.2845 30C24.2857 30 26.2685 29.2875 26.9245 28.4243L27.0559 28.2513L25.8154 24.5745C25.8039 24.5405 25.772 24.5176 25.7361 24.5176H22.9649C22.9273 24.5176 22.8934 24.4937 22.8839 24.4574C22.8516 24.3348 22.8323 24.1849 22.8294 23.9997V19.5028C22.8294 19.4566 22.8668 19.4191 22.913 19.4191H26.1735C26.2197 19.4191 26.2572 19.3817 26.2572 19.3355V14.735C26.2572 14.6888 26.2197 14.6514 26.1735 14.6514H22.927C22.8808 14.6514 22.8434 14.6139 22.8434 14.5677V10.0837C22.8434 10.0375 22.8059 10 22.7597 10H17.0662C16.659 10 16.1892 10.302 16.1205 10.8617C15.8362 13.1764 14.7747 14.565 12.7797 15.2317L12.5572 15.306C12.523 15.3174 12.5 15.3493 12.5 15.3854V19.3355C12.5 19.3817 12.5375 19.4191 12.5836 19.4191H14.6211V24.2843C14.6211 28.168 17.3111 30 22.2845 30Z" fill="#F4F2ED"/>
</svg>
