<svg width="1100" height="1030" viewBox="0 0 1100 1030" fill="none" xmlns="http://www.w3.org/2000/svg">
<g opacity="0.06">
<path d="M550 -70L555.099 464.308L873.282 35.0406L563.349 470.302L1073.08 310.041L566.5 480L1073.08 649.959L563.349 489.698L873.282 924.959L555.099 495.692L550 1030L544.901 495.692L226.718 924.959L536.651 489.698L26.9189 649.959L533.5 480L26.9189 310.041L536.651 470.302L226.718 35.0406L544.901 464.308L550 -70Z" fill="#1174A3"/>
<path d="M550 40L552.753 462.617L685.967 61.5351L557.99 464.318L808.625 124.033L562.445 467.555L905.967 221.374L565.682 472.01L968.465 344.033L567.383 477.247L990 480L567.383 482.753L968.465 615.967L565.682 487.99L905.967 738.625L562.445 492.445L808.625 835.967L557.99 495.682L685.967 898.465L552.753 497.383L550 920L547.247 497.383L414.033 898.465L542.01 495.682L291.374 835.967L537.555 492.445L194.033 738.625L534.318 487.99L131.535 615.967L532.617 482.753L110 480L532.617 477.247L131.535 344.033L534.318 472.01L194.033 221.374L537.555 467.555L291.374 124.033L542.01 464.318L414.033 61.5351L547.247 462.617L550 40Z" fill="#1174A3"/>
</g>
</svg>
